<svg xmlns="http://www.w3.org/2000/svg" width="89.979" height="37" viewBox="0 0 89.979 37">
  <g id="Group_13357" data-name="Group 13357" transform="translate(9284.5 -843)">
    <path id="Path_8855" data-name="Path 8855" d="M50.878,1.331V15.148H49.014L41.119,3.568V15.148H39.584V1.331h1.864l7.9,11.559V1.331Z" transform="translate(-9289.651 842.826)" fill="#007ed3"/>
    <path id="Path_8856" data-name="Path 8856" d="M56.1,4.888H54.583V3.374H56.1ZM54.583,6.2H56.1v9.189H54.583Z" transform="translate(-9291.604 842.56)" fill="#007ed3"/>
    <path id="Path_8857" data-name="Path 8857" d="M66.695,13.883a4.712,4.712,0,0,1-1.622,1.4,4.514,4.514,0,0,1-2.149.526,4.2,4.2,0,0,1-1.776-.351,4.841,4.841,0,0,1-1.47-.986,4.711,4.711,0,0,1-.986-1.448,4.232,4.232,0,0,1-.351-1.8,4.238,4.238,0,0,1,.351-1.8,4.59,4.59,0,0,1,2.456-2.456A4.517,4.517,0,0,1,62.923,6.6a4.186,4.186,0,0,1,2.149.548A4.9,4.9,0,0,1,66.695,8.53l-1.272.9a3.905,3.905,0,0,0-1.074-.921,2.746,2.746,0,0,0-1.426-.351,3.3,3.3,0,0,0-1.206.241,2.722,2.722,0,0,0-.965.658,3,3,0,0,0-.658.987,2.791,2.791,0,0,0-.241,1.185,2.837,2.837,0,0,0,.241,1.206,3.142,3.142,0,0,0,.658.965,2.689,2.689,0,0,0,.965.658,3.28,3.28,0,0,0,1.206.242,2.754,2.754,0,0,0,1.426-.351,4.019,4.019,0,0,0,1.074-.966Z" transform="translate(-9292.093 842.14)" fill="#007ed3"/>
    <path id="Path_8858" data-name="Path 8858" d="M74.172,5.915V7.45H71.5v6.163h7.193v1.534H69.961V1.331h8.728V2.889H71.5V5.915Z" transform="translate(-9293.605 842.826)" fill="#007ed3"/>
    <path id="Path_8859" data-name="Path 8859" d="M89.687,15.289a3.623,3.623,0,0,1-.285,1.492,3.685,3.685,0,0,1-2.04,2.04,3.971,3.971,0,0,1-1.514.307,3.845,3.845,0,0,1-2.719-1.119,3.758,3.758,0,0,1-.812-1.227l1.426-.593a2.607,2.607,0,0,0,.482.747,2.893,2.893,0,0,0,.725.5,2.719,2.719,0,0,0,.9.176,2.433,2.433,0,0,0,.9-.176,2.515,2.515,0,0,0,.724-.5,2.642,2.642,0,0,0,.5-.747,1.776,1.776,0,0,0,.175-.9V15.07a3.912,3.912,0,0,1-1.029.571,4.012,4.012,0,0,1-1.273.2,3.839,3.839,0,0,1-2.719-1.119,3.762,3.762,0,0,1-.812-1.228A3.936,3.936,0,0,1,82.01,12V6.627h1.536V12a2.724,2.724,0,0,0,.176.9,2.63,2.63,0,0,0,.5.745,2.875,2.875,0,0,0,.725.5,2.717,2.717,0,0,0,.9.175,2.432,2.432,0,0,0,.9-.175,2.5,2.5,0,0,0,.724-.5,2.633,2.633,0,0,0,.5-.745,1.785,1.785,0,0,0,.175-.9V6.627h1.536Z" transform="translate(-9295.174 842.137)" fill="#007ed3"/>
    <path id="Path_8860" data-name="Path 8860" d="M94.474,11.974a2.52,2.52,0,0,0,.417.921,2.943,2.943,0,0,0,.657.745,3.456,3.456,0,0,0,.878.483,3.513,3.513,0,0,0,1.031.176,2.922,2.922,0,0,0,1.579-.416,3.211,3.211,0,0,0,1.1-1.141l1.293.768A4.6,4.6,0,0,1,99.8,15.2a4.415,4.415,0,0,1-2.348.614,4.465,4.465,0,0,1-1.8-.351,4.717,4.717,0,0,1-2.435-2.435,4.53,4.53,0,0,1,0-3.6,4.813,4.813,0,0,1,.987-1.469A4.588,4.588,0,0,1,97.456,6.6a4.543,4.543,0,0,1,1.8.373,4.769,4.769,0,0,1,1.469.986,4.833,4.833,0,0,1,.989,1.469,4.282,4.282,0,0,1,.35,1.8,2.4,2.4,0,0,1-.022.394,2.91,2.91,0,0,1-.045.351Zm1.951-3.641a3.538,3.538,0,0,0-.878.483,2.589,2.589,0,0,0-.657.724,2.786,2.786,0,0,0-.417.9h5.965a2.852,2.852,0,0,0-1.075-1.623,2.963,2.963,0,0,0-1.908-.658,3.511,3.511,0,0,0-1.031.175" transform="translate(-9296.584 842.14)" fill="#007ed3"/>
    <path id="Path_8861" data-name="Path 8861" d="M26.785,20.664a7.426,7.426,0,0,1,3.049.668l-.672,1.583a5.418,5.418,0,0,0-2.377-.519,6.064,6.064,0,1,0,5.833,6.927H28.154V27.591H34.3c.024.272.049.569.049.866a7.565,7.565,0,1,1-7.562-7.793" transform="translate(-9287.002 840.31)" fill="#007ed3"/>
    <path id="Path_8862" data-name="Path 8862" d="M43.4,28.966a2.308,2.308,0,0,0-2.281,2.281v5.372H39.586V27.408H41.12v.79a3.561,3.561,0,0,1,2.281-.79,4.117,4.117,0,0,1,1.733.417l-.658,1.382a2.5,2.5,0,0,0-1.075-.241" transform="translate(-9289.651 839.432)" fill="#007ed3"/>
    <path id="Path_8863" data-name="Path 8863" d="M55.779,32.037a4.605,4.605,0,1,1-4.6-4.628,4.586,4.586,0,0,1,4.6,4.628m-1.534,0a3.071,3.071,0,1,0-3.071,3.07,3.08,3.08,0,0,0,3.071-3.07" transform="translate(-9290.561 839.432)" fill="#007ed3"/>
    <path id="Path_8864" data-name="Path 8864" d="M59.173,32.781V27.408H60.73v5.373a2.292,2.292,0,1,0,4.584,0V27.408h1.557v9.211H65.314v-.768a3.782,3.782,0,0,1-2.324.768,3.823,3.823,0,0,1-3.817-3.838" transform="translate(-9292.201 839.432)" fill="#007ed3"/>
    <path id="Path_8865" data-name="Path 8865" d="M75.938,27.782a4.536,4.536,0,0,1,1.469.987,4.8,4.8,0,0,1,.987,1.467,4.791,4.791,0,0,1,0,3.6,4.725,4.725,0,0,1-.987,1.447,4.55,4.55,0,0,1-1.469.987,4.45,4.45,0,0,1-1.8.351,4.239,4.239,0,0,1-1.8-.351,8.653,8.653,0,0,1-.767-.438v4.736H70.039V27.409h1.535V28.2a3.7,3.7,0,0,1,.767-.416,4.543,4.543,0,0,1,1.8-.373,4.7,4.7,0,0,1,1.8.373m-.592,7.083a3.139,3.139,0,0,0,1.622-1.622,3.076,3.076,0,0,0,0-2.391,2.978,2.978,0,0,0-.657-.987,3.163,3.163,0,0,0-.966-.658,3.085,3.085,0,0,0-2.39,0,3.017,3.017,0,0,0-.986.658,2.2,2.2,0,0,0-.395.506V33.7a2.218,2.218,0,0,0,.395.5,2.992,2.992,0,0,0,.986.658,3.084,3.084,0,0,0,2.39,0" transform="translate(-9293.615 839.432)" fill="#007ed3"/>
    <path id="Path_8866" data-name="Path 8866" d="M15.02,7.77a7.642,7.642,0,0,1-7.509,7.769A7.643,7.643,0,0,1,0,7.77,7.644,7.644,0,0,1,7.511,0,7.643,7.643,0,0,1,15.02,7.77" transform="translate(-9284.5 843)" fill="#007ed3"/>
    <path id="Path_8867" data-name="Path 8867" d="M15.02,28.435A7.642,7.642,0,0,1,7.511,36.2a7.773,7.773,0,0,1,0-15.537,7.642,7.642,0,0,1,7.509,7.769" transform="translate(-9284.5 840.31)" fill="#007ed3"/>
    <path id="Path_8868" data-name="Path 8868" d="M34.348,7.77a7.515,7.515,0,1,1-15.021,0,7.515,7.515,0,1,1,15.021,0" transform="translate(-9287.015 842.999)" fill="#007ed3"/>
  </g>
</svg>
